<svg width="167" height="30" viewBox="0 0 167 30" fill="none" xmlns="http://www.w3.org/2000/svg"><mask id="a" maskUnits="userSpaceOnUse" x="0" y="0" width="31" height="30"><path fill-rule="evenodd" clip-rule="evenodd" d="M0 .12h30.083v29.85H0V.12z" fill="#fff"/></mask><g mask="url(#a)"><path fill-rule="evenodd" clip-rule="evenodd" d="M28.56 29.97H1.523A1.517 1.517 0 0 1 0 28.46V1.63C0 .796.682.119 1.523.119H28.56c.841 0 1.523.677 1.523 1.512v26.828c0 .835-.682 1.511-1.523 1.511z" fill="#F63C3B"/></g><path fill-rule="evenodd" clip-rule="evenodd" d="M11.14 19.345V16.9h7.608c.107 0 .195.087.195.193v2.059a.194.194 0 0 1-.195.193H11.14zm7.803-8.573v2.187a.194.194 0 0 1-.195.193H11.14v-2.574h7.608c.107 0 .195.087.195.194zm2.885-4.023H6.68V23.34h15.147c.869 0 1.574-.7 1.574-1.562v-4.576c0-1.82-1.588-2.159-1.588-2.159s1.588-.375 1.588-2.206V8.31c0-.862-.705-1.561-1.574-1.561zM86.805 13.152v-2.188c0-.087.07-.157.158-.157h7.487c.087 0 .158.07.158.157v2.188h-7.803zM97.553 6.75H83.86c-.836 0-1.514.672-1.514 1.502v15.09h4.459v-6.148h7.803v6.148h4.459V8.25c0-.83-.678-1.502-1.514-1.502zM166.99 6.749h-16.577v4.424h6.088v12.168h4.459V11.173h6.03V6.75zM123.174 6.749h-4.459V23.34h14.234v-4.425h-9.775V6.749zM57.967 11.37v7.147a.198.198 0 0 1-.199.196h-7.406a.198.198 0 0 1-.198-.197V11.37c0-.109.089-.197.198-.197h7.406c.11 0 .199.088.199.197zm2.924-4.621H47.239c-.847 0-1.534.681-1.534 1.522v13.547c0 .84.687 1.523 1.534 1.523h13.652c.848 0 1.535-.682 1.535-1.523V8.27c0-.84-.688-1.522-1.535-1.522z" fill="#fff"/></svg>